<svg width="49" height="49" viewBox="0 0 49 49" fill="none" xmlns="http://www.w3.org/2000/svg">
<circle cx="24.5" cy="24.5" r="24.5" fill="#FF8B00"/>
<path d="M24 19.5455C20.9864 19.5455 18.5454 21.9864 18.5454 25C18.5454 28.0136 20.9864 30.4545 24 30.4545C27.0136 30.4545 29.4545 28.0136 29.4545 25C29.4545 21.9864 27.0136 19.5455 24 19.5455ZM36.1909 23.6364C35.5636 17.95 31.05 13.4364 25.3636 12.8091V11.3636C25.3636 10.6136 24.75 10 24 10C23.25 10 22.6364 10.6136 22.6364 11.3636V12.8091C16.95 13.4364 12.4364 17.95 11.8091 23.6364H10.3636C9.61364 23.6364 9 24.25 9 25C9 25.75 9.61364 26.3636 10.3636 26.3636H11.8091C12.4364 32.05 16.95 36.5636 22.6364 37.1909V38.6364C22.6364 39.3864 23.25 40 24 40C24.75 40 25.3636 39.3864 25.3636 38.6364V37.1909C31.05 36.5636 35.5636 32.05 36.1909 26.3636H37.6363C38.3863 26.3636 39 25.75 39 25C39 24.25 38.3863 23.6364 37.6363 23.6364H36.1909ZM24 34.5455C18.7227 34.5455 14.4545 30.2773 14.4545 25C14.4545 19.7227 18.7227 15.4545 24 15.4545C29.2773 15.4545 33.5454 19.7227 33.5454 25C33.5454 30.2773 29.2773 34.5455 24 34.5455Z" fill="white"/>
</svg>
